<?xml version="1.0" standalone="no"?>
<!DOCTYPE svg PUBLIC "-//W3C//DTD SVG 20010904//EN"
 "http://www.w3.org/TR/2001/REC-SVG-20010904/DTD/svg10.dtd">
<svg version="1.0" xmlns="http://www.w3.org/2000/svg"
 width="1178.000000pt" height="303.000000pt" viewBox="0 0 1178.000000 303.000000"
 preserveAspectRatio="xMidYMid meet">
<metadata>
Created by potrace 1.16, written by Peter Selinger 2001-2019
</metadata>
<g transform="translate(0.000000,303.000000) scale(0.100000,-0.100000)"
fill="#000000" stroke="none">
<path d="M3132 2383 c-115 -35 -183 -149 -152 -257 14 -50 67 -119 109 -140
74 -39 185 -25 253 32 85 72 92 224 13 305 -66 68 -136 87 -223 60z"/>
<path d="M11523 1255 c-48 -21 -66 -56 -61 -117 7 -67 39 -98 103 -98 111 0
157 145 65 208 -38 25 -62 27 -107 7z"/>
<path d="M1269 792 c-12 -20 -36 -62 -54 -92 -17 -30 -58 -100 -90 -155 -32
-55 -69 -120 -83 -145 -13 -25 -53 -93 -88 -152 -35 -59 -64 -110 -64 -113 0
-3 109 -5 243 -5 240 0 242 0 257 23 82 128 180 302 177 311 -3 6 -44 63 -93
126 -48 63 -109 143 -135 177 l-48 62 -22 -37z"/>
<path d="M8955 452 c-32 -7 -45 -22 -45 -53 0 -53 76 -73 101 -27 23 42 -11
90 -56 80z"/>
</g>
</svg>
