<?xml version="1.0" standalone="no"?>
<!DOCTYPE svg PUBLIC "-//W3C//DTD SVG 20010904//EN"
 "http://www.w3.org/TR/2001/REC-SVG-20010904/DTD/svg10.dtd">
<svg version="1.0" xmlns="http://www.w3.org/2000/svg"
 width="1178.000000pt" height="303.000000pt" viewBox="0 0 1178.000000 303.000000"
 preserveAspectRatio="xMidYMid meet">
<metadata>
Created by potrace 1.16, written by Peter Selinger 2001-2019
</metadata>
<g transform="translate(0.000000,303.000000) scale(0.100000,-0.100000)"
fill="#000000" stroke="none">
<path d="M1583 2707 c-66 -116 -262 -457 -433 -757 -172 -300 -358 -626 -415
-725 -56 -99 -164 -288 -240 -420 -207 -360 -376 -656 -382 -672 -4 -11 37
-13 243 -11 l249 3 62 108 c35 60 136 238 225 395 217 385 703 1237 764 1339
27 46 52 83 55 83 6 0 29 -36 207 -322 154 -249 195 -309 202 -301 14 15 251
374 256 388 5 13 -35 82 -343 585 -82 135 -187 307 -232 383 -46 75 -86 137
-89 137 -4 0 -62 -96 -129 -213z"/>
<path d="M4130 1075 c0 -860 2 -975 15 -975 13 0 15 115 15 975 0 860 -2 975
-15 975 -13 0 -15 -115 -15 -975z"/>
<path d="M5690 1872 c-24 -25 -30 -39 -30 -75 0 -39 5 -49 32 -72 27 -23 39
-26 77 -22 58 6 91 41 91 97 0 56 -33 90 -92 97 -42 5 -50 3 -78 -25z"/>
<path d="M9590 1450 l0 -430 90 0 90 0 0 178 c0 159 2 180 20 210 35 57 117
70 167 28 l28 -24 3 -196 3 -196 90 0 89 0 0 208 c0 247 -9 290 -69 345 -84
76 -218 76 -296 0 l-35 -34 0 171 0 170 -90 0 -90 0 0 -430z"/>
<path d="M5031 1698 c-30 -73 -103 -250 -163 -393 -61 -143 -112 -266 -115
-272 -4 -10 20 -13 99 -13 l105 0 27 70 28 70 168 0 168 0 27 -70 27 -70 104
0 104 0 -18 43 c-9 23 -82 205 -162 405 l-145 362 -100 0 -101 0 -53 -132z
m204 -228 c24 -63 46 -123 50 -132 7 -17 -2 -18 -105 -18 -103 0 -112 1 -105
18 4 9 27 71 51 136 51 136 56 146 62 126 2 -8 24 -67 47 -130z"/>
<path d="M7530 1425 l0 -405 90 0 90 0 1 253 0 252 90 -184 c49 -101 89 -188
89 -192 0 -5 30 -9 68 -9 l67 0 50 108 c27 59 68 145 92 192 l42 85 0 -252 1
-253 90 0 90 0 0 405 0 405 -113 0 -112 0 -95 -206 c-52 -113 -96 -212 -98
-220 -4 -16 -22 -19 -22 -3 0 6 -43 105 -96 220 l-97 209 -113 0 -114 0 0
-405z"/>
<path d="M2666 1658 c-64 -84 -212 -280 -329 -435 l-212 -282 -120 182 c-66
101 -158 242 -205 315 -47 72 -87 132 -90 132 -8 0 -295 -484 -294 -496 1 -12
693 -937 704 -942 4 -1 59 66 122 150 288 383 716 938 723 938 1 0 3 -6 2 -12
0 -7 1 -255 1 -551 l2 -537 223 2 222 3 0 840 0 840 -316 3 -316 2 -117 -152z"/>
<path d="M9170 1700 l0 -80 -45 0 -45 0 0 -74 0 -75 43 -3 42 -3 5 -171 c5
-161 6 -173 30 -207 14 -21 45 -47 68 -59 37 -17 56 -20 122 -15 64 4 107 15
128 32 2 2 -2 32 -8 69 l-12 65 -57 -5 c-87 -10 -91 -3 -91 162 l0 134 80 0
80 0 0 75 0 75 -80 0 -80 0 0 80 0 80 -90 0 -90 0 0 -80z"/>
<path d="M6067 1606 c-73 -26 -97 -41 -97 -61 0 -7 10 -36 22 -64 16 -40 25
-50 37 -45 135 59 242 58 270 -3 23 -50 18 -53 -82 -53 -57 0 -115 -6 -148
-16 -165 -49 -189 -257 -38 -334 76 -40 223 -21 268 34 16 20 31 21 31 3 0
-18 28 -43 59 -52 13 -4 52 -4 87 0 l64 7 0 68 c0 67 0 68 -30 74 l-30 6 0
145 c0 124 -3 151 -19 183 -46 90 -109 124 -236 129 -76 3 -100 0 -158 -21z
m240 -373 c-12 -70 -89 -111 -157 -83 -33 14 -45 39 -36 76 9 33 36 43 125 43
l74 1 -6 -37z"/>
<path d="M8620 1611 c-51 -16 -76 -28 -107 -49 -10 -6 -8 -20 8 -62 11 -30 24
-58 28 -62 3 -4 35 4 71 18 115 47 211 28 218 -43 l3 -31 -108 -4 c-125 -4
-192 -29 -230 -86 -50 -75 -38 -177 28 -236 44 -40 83 -50 174 -44 52 3 73 10
109 35 l44 31 21 -29 c25 -34 69 -44 146 -34 l55 6 0 69 c0 67 0 69 -27 72
l-28 3 -5 150 c-6 167 -16 202 -76 255 -67 58 -213 77 -324 41z m223 -363 c15
-55 -56 -114 -125 -105 -51 7 -68 22 -68 63 0 48 28 64 116 64 65 0 72 -2 77
-22z"/>
<path d="M11234 1619 c-18 -5 -48 -27 -67 -48 l-36 -40 -3 42 -3 42 -87 3 -88
3 0 -301 0 -300 90 0 90 0 0 163 c0 134 3 168 18 196 25 49 60 71 125 78 l58
6 -3 81 -3 81 -30 2 c-16 1 -44 -3 -61 -8z"/>
<path d="M5668 1304 l-3 -316 -25 -20 c-19 -16 -35 -19 -72 -16 l-47 5 -11
-69 c-7 -38 -9 -72 -6 -76 4 -3 49 -8 100 -10 79 -4 98 -1 134 17 49 25 86 71
101 126 7 25 11 159 11 358 l0 317 -90 0 -89 0 -3 -316z"/>
<path d="M6520 1611 c0 -5 54 -138 120 -295 120 -283 121 -286 105 -316 -20
-39 -57 -53 -121 -46 l-51 6 -11 -48 c-6 -26 -14 -57 -18 -69 -5 -18 0 -23 33
-32 21 -6 69 -11 106 -11 130 0 179 46 261 249 30 75 95 233 145 351 l89 215
-91 3 c-49 1 -93 -1 -97 -5 -4 -4 -35 -90 -71 -190 -35 -101 -67 -183 -70
-183 -3 0 -11 17 -17 38 -7 21 -36 106 -66 188 l-54 149 -96 3 c-57 2 -96 -1
-96 -7z"/>
<path d="M10264 1605 c-3 -8 -4 -108 -3 -222 4 -198 5 -210 29 -257 38 -76 86
-109 166 -114 79 -5 142 16 179 59 l25 31 0 -41 0 -41 90 0 90 0 -2 298 -3
297 -87 3 -88 3 0 -170 c0 -96 -5 -182 -11 -198 -25 -67 -90 -98 -150 -72 -51
21 -59 55 -59 259 l0 180 -85 0 c-67 0 -87 -3 -91 -15z"/>
<path d="M4762 478 c5 -18 19 -68 30 -110 27 -104 45 -105 79 -3 13 41 27 75
30 75 3 0 16 -34 29 -75 32 -103 45 -98 86 38 28 95 30 107 15 107 -13 0 -22
-18 -35 -68 -26 -102 -30 -103 -58 -15 -14 43 -31 78 -37 78 -7 0 -25 -38 -40
-85 -15 -47 -29 -80 -33 -75 -3 6 -14 45 -24 88 -14 60 -22 77 -35 77 -15 0
-16 -4 -7 -32z"/>
<path d="M5176 403 l3 -108 70 -3 c59 -2 71 0 71 13 0 12 -13 15 -60 15 l-60
0 0 35 0 35 55 0 c42 0 55 3 55 15 0 12 -13 15 -55 15 -54 0 -55 0 -55 30 l0
30 60 0 c47 0 60 3 60 15 0 12 -15 15 -74 15 l-73 0 3 -107z"/>
<path d="M5462 403 l3 -108 44 -3 c25 -2 55 -1 67 2 51 13 70 62 37 98 -13 14
-14 21 -5 30 17 17 15 54 -4 72 -11 11 -35 16 -80 16 l-65 0 3 -107z m123 47
c0 -23 -4 -25 -47 -28 -48 -3 -48 -3 -48 28 0 31 0 31 48 28 43 -3 47 -5 47
-28z m-1 -66 c19 -7 21 -35 4 -52 -7 -7 -31 -12 -55 -12 -42 0 -43 0 -43 35 0
34 1 35 39 35 22 0 46 -3 55 -6z"/>
<path d="M5960 399 l0 -111 60 4 c102 7 147 63 121 148 -15 50 -51 70 -126 70
l-55 0 0 -111z m140 54 c17 -21 20 -36 16 -63 -7 -45 -38 -70 -87 -70 l-39 0
0 80 0 80 44 0 c37 0 48 -5 66 -27z"/>
<path d="M6290 400 l0 -110 70 0 c56 0 70 3 70 15 0 12 -13 15 -55 15 l-55 0
0 35 0 35 50 0 c38 0 50 4 50 15 0 11 -12 15 -50 15 -49 0 -50 1 -50 30 0 30
1 30 55 30 42 0 55 3 55 15 0 12 -14 15 -70 15 l-70 0 0 -110z"/>
<path d="M6560 505 c0 -2 18 -52 41 -110 31 -81 45 -105 57 -103 20 4 106 211
90 217 -15 5 -22 -7 -54 -91 -16 -43 -31 -78 -34 -78 -4 0 -21 38 -39 85 -20
49 -39 85 -47 85 -8 0 -14 -2 -14 -5z"/>
<path d="M6890 400 l0 -110 75 0 c60 0 75 3 75 15 0 12 -13 15 -60 15 l-60 0
0 35 0 35 50 0 c38 0 50 4 50 15 0 11 -12 15 -50 15 -49 0 -50 1 -50 30 l0 30
60 0 c47 0 60 3 60 15 0 12 -15 15 -75 15 l-75 0 0 -110z"/>
<path d="M7180 400 l0 -110 70 0 c56 0 70 3 70 15 0 12 -13 15 -55 15 l-55 0
0 95 c0 78 -3 95 -15 95 -12 0 -15 -19 -15 -110z"/>
<path d="M7468 481 c-29 -26 -33 -35 -33 -81 0 -46 4 -55 34 -82 30 -27 39
-30 79 -25 65 7 97 42 97 107 0 40 -5 54 -29 79 -41 43 -102 44 -148 2z m132
-28 c42 -54 5 -133 -62 -133 -38 0 -78 40 -78 78 0 76 94 113 140 55z"/>
<path d="M7790 399 c0 -84 3 -110 13 -107 6 3 13 21 15 41 3 36 5 37 41 37 77
0 119 72 71 120 -16 16 -33 20 -80 20 l-60 0 0 -111z m128 53 c5 -35 -15 -52
-64 -52 l-44 0 0 41 0 40 53 -3 c46 -3 52 -6 55 -26z"/>
<path d="M8082 403 l3 -108 73 -3 c59 -2 72 0 72 13 0 12 -13 15 -60 15 l-60
0 0 35 0 35 55 0 c42 0 55 3 55 15 0 12 -13 15 -55 15 -54 0 -55 0 -55 30 l0
30 60 0 c47 0 60 3 60 15 0 12 -15 15 -75 15 l-76 0 3 -107z"/>
<path d="M8378 400 c2 -60 7 -110 13 -110 5 0 9 18 9 40 0 38 1 40 33 40 27 0
36 -6 55 -40 12 -22 29 -40 37 -40 20 0 19 5 -9 46 l-24 35 24 24 c29 30 30
54 3 89 -18 23 -27 26 -82 26 l-62 0 3 -110z m122 65 c10 -12 10 -21 2 -40
-10 -21 -18 -25 -57 -25 l-45 0 0 40 0 40 44 0 c27 0 48 -6 56 -15z"/>
<path d="M9390 400 l0 -110 51 0 c91 0 139 39 139 111 0 42 -26 88 -56 99 -14
6 -50 10 -80 10 l-54 0 0 -110z m140 60 c29 -29 27 -84 -5 -115 -18 -18 -35
-25 -65 -25 l-40 0 0 80 0 80 45 0 c32 0 51 -6 65 -20z"/>
<path d="M9722 403 l3 -108 71 -3 c57 -2 73 0 77 13 5 12 -3 15 -52 15 -32 0
-60 2 -63 5 -2 3 -3 18 0 35 4 29 6 30 53 30 37 0 49 4 49 15 0 11 -12 15 -49
15 -47 0 -49 1 -53 30 l-5 30 58 0 c41 0 58 4 63 15 4 13 -8 15 -75 15 l-80 0
3 -107z"/>
<path d="M10046 403 c31 -78 48 -108 60 -108 13 0 29 30 60 108 32 83 39 107
27 105 -9 -2 -29 -37 -48 -85 -17 -46 -33 -85 -36 -87 -3 -3 -20 35 -38 84
-24 66 -38 90 -51 90 -14 0 -11 -15 26 -107z"/>
<path d="M10368 490 c-89 -69 -35 -210 75 -196 73 9 112 76 87 150 -6 19 -22
41 -35 50 -34 22 -97 20 -127 -4z m122 -30 c63 -63 -21 -172 -100 -130 -23 12
-43 70 -34 96 20 56 93 75 134 34z"/>
<path d="M10690 399 c0 -84 3 -110 13 -107 6 3 13 21 15 41 3 33 6 37 32 37
65 0 108 38 96 85 -11 42 -33 55 -97 55 l-59 0 0 -111z m124 59 c18 -29 -4
-53 -53 -56 l-41 -3 0 41 0 41 41 -3 c27 -2 46 -9 53 -20z"/>
<path d="M11005 494 c-10 -10 -15 -29 -13 -47 3 -28 9 -34 58 -52 46 -18 55
-25 55 -45 0 -21 -6 -26 -32 -28 -18 -2 -42 2 -54 8 -13 7 -25 8 -30 3 -15
-15 15 -34 60 -40 53 -7 91 16 91 55 0 39 -9 48 -65 69 -28 11 -51 26 -53 35
-5 25 30 39 68 28 40 -12 60 -2 35 17 -26 18 -100 17 -120 -3z"/>
</g>
</svg>
